<svg xmlns="http://www.w3.org/2000/svg" xmlns:xlink="http://www.w3.org/1999/xlink" id="Layer_1" data-name="Layer 1" viewBox="0 0 73.33 73.33"><defs><style>.cls-1,.cls-2,.cls-77,.cls-79,.cls-81{fill:none}.cls-2{clip-rule:evenodd}.cls-75{clip-path:url(#clip-path-75)}.cls-76{fill:#fff}.cls-77,.cls-79,.cls-81{stroke:#4178be;stroke-width:2px}.cls-77,.cls-81{stroke-miterlimit:10}.cls-78{clip-path:url(#clip-path-76)}.cls-79{stroke-linejoin:round}.cls-80{clip-path:url(#clip-path-77)}.cls-81{stroke-linecap:square}.cls-82{clip-path:url(#clip-path-78)}.cls-83{fill:#4178be}.cls-84{clip-path:url(#clip-path-79)}.cls-85{clip-path:url(#clip-path-80)}.cls-86{clip-path:url(#clip-path-81)}.cls-87{clip-path:url(#clip-path-82)}</style><clipPath id="clip-path"><rect width="416.41" height="150.53" x="-1786.99" y="553.67" class="cls-1"/></clipPath><clipPath id="clip-path-2"><circle cx="-349.84" cy="-49.52" r="33.88" class="cls-1"/></clipPath><clipPath id="clip-path-3"><path d="M-337.05-59.11H-362a1.27,1.27,0,0,0-1.28,1.27v24.3l3.72-4.82h21.22a1.28,1.28,0,0,0,1.27-1.27Z" class="cls-2"/></clipPath><clipPath id="clip-path-4"><rect width="15.98" height="1.28" x="-358.15" y="-46.33" class="cls-1"/></clipPath><clipPath id="clip-path-5"><rect width="15.98" height="1.28" x="-358.15" y="-50.16" class="cls-1"/></clipPath><clipPath id="clip-path-6"><rect width="15.98" height="1.28" x="-358.15" y="-54" class="cls-1"/></clipPath><clipPath id="clip-path-7"><circle cx="-337.69" cy="-60.39" r="5.11" class="cls-1"/></clipPath><clipPath id="clip-path-8"><rect width="344.22" height="124.43" x="-668.53" y="452.43" class="cls-1"/></clipPath><clipPath id="clip-path-9"><rect width="94" height="75" x="-547.53" y="478.43" class="cls-1"/></clipPath><clipPath id="clip-path-10"><rect width="94" height="15.52" x="-547.53" y="478.43" class="cls-1"/></clipPath><clipPath id="clip-path-11"><path d="M-535.78,486.19a3.9,3.9,0,0,1-3.92,3.88,3.9,3.9,0,0,1-3.92-3.88,3.9,3.9,0,0,1,3.92-3.88,3.9,3.9,0,0,1,3.92,3.88" class="cls-2"/></clipPath><clipPath id="clip-path-12"><path d="M-524,486.19a3.9,3.9,0,0,1-3.92,3.88,3.9,3.9,0,0,1-3.92-3.88,3.9,3.9,0,0,1,3.92-3.88,3.9,3.9,0,0,1,3.92,3.88" class="cls-2"/></clipPath><clipPath id="clip-path-13"><path d="M-512.28,486.19a3.9,3.9,0,0,1-3.92,3.88,3.9,3.9,0,0,1-3.92-3.88,3.9,3.9,0,0,1,3.92-3.88,3.9,3.9,0,0,1,3.92,3.88" class="cls-2"/></clipPath><clipPath id="clip-path-14"><rect width="9.14" height="59.48" x="-547.53" y="493.95" class="cls-1"/></clipPath><clipPath id="clip-path-15"><path d="M-542.3,501.71a1.3,1.3,0,0,0,1.31-1.29,1.3,1.3,0,0,0-1.31-1.29h-1.31a1.3,1.3,0,0,0-1.31,1.29,1.3,1.3,0,0,0,1.31,1.29Z" class="cls-2"/></clipPath><clipPath id="clip-path-16"><path d="M-542.3,504.29h-1.31a1.3,1.3,0,0,0-1.31,1.29,1.3,1.3,0,0,0,1.31,1.29h1.31a1.3,1.3,0,0,0,1.31-1.29,1.3,1.3,0,0,0-1.31-1.29" class="cls-2"/></clipPath><clipPath id="clip-path-17"><path d="M-542.3,509.47h-1.31a1.3,1.3,0,0,0-1.31,1.29,1.3,1.3,0,0,0,1.31,1.29h1.31a1.3,1.3,0,0,0,1.31-1.29,1.3,1.3,0,0,0-1.31-1.29" class="cls-2"/></clipPath><clipPath id="clip-path-18"><path d="M-542.3,514.64h-1.31a1.3,1.3,0,0,0-1.31,1.29,1.3,1.3,0,0,0,1.31,1.29h1.31a1.3,1.3,0,0,0,1.31-1.29,1.3,1.3,0,0,0-1.31-1.29" class="cls-2"/></clipPath><clipPath id="clip-path-19"><path d="M-542.3,519.81h-1.31a1.3,1.3,0,0,0-1.31,1.29,1.3,1.3,0,0,0,1.31,1.29h1.31A1.3,1.3,0,0,0-541,521.1a1.3,1.3,0,0,0-1.31-1.29" class="cls-2"/></clipPath><clipPath id="clip-path-20"><path d="M-542.3,525h-1.31a1.3,1.3,0,0,0-1.31,1.29,1.3,1.3,0,0,0,1.31,1.29h1.31a1.3,1.3,0,0,0,1.31-1.29A1.3,1.3,0,0,0-542.3,525" class="cls-2"/></clipPath><clipPath id="clip-path-21"><path d="M-542.3,530.16h-1.31a1.3,1.3,0,0,0-1.31,1.29,1.3,1.3,0,0,0,1.31,1.29h1.31a1.3,1.3,0,0,0,1.31-1.29,1.3,1.3,0,0,0-1.31-1.29" class="cls-2"/></clipPath><clipPath id="clip-path-22"><path d="M-542.3,535.33h-1.31a1.3,1.3,0,0,0-1.31,1.29,1.3,1.3,0,0,0,1.31,1.29h1.31a1.3,1.3,0,0,0,1.31-1.29,1.3,1.3,0,0,0-1.31-1.29" class="cls-2"/></clipPath><clipPath id="clip-path-23"><path d="M-542.3,540.5h-1.31a1.3,1.3,0,0,0-1.31,1.29,1.3,1.3,0,0,0,1.31,1.29h1.31a1.3,1.3,0,0,0,1.31-1.29,1.3,1.3,0,0,0-1.31-1.29" class="cls-2"/></clipPath><clipPath id="clip-path-24"><path d="M-542.3,545.67h-1.31a1.3,1.3,0,0,0-1.31,1.29,1.3,1.3,0,0,0,1.31,1.29h1.31A1.3,1.3,0,0,0-541,547a1.3,1.3,0,0,0-1.31-1.29" class="cls-2"/></clipPath><clipPath id="clip-path-25"><polygon points="-515.99 538.07 -500.33 538.2 -492.48 524.6 -523.32 524.3 -515.99 538.07" class="cls-2"/></clipPath><clipPath id="clip-path-26"><polygon points="-523.79 524.63 -516.07 538.26 -500.42 538.22 -515.91 510.74 -523.79 524.63" class="cls-2"/></clipPath><clipPath id="clip-path-27"><polygon points="-483.06 506.79 -498.72 506.67 -506.57 520.26 -475.73 520.56 -483.06 506.79" class="cls-2"/></clipPath><clipPath id="clip-path-28"><polygon points="-475.26 520.23 -482.99 506.61 -498.63 506.64 -483.15 534.12 -475.26 520.23" class="cls-2"/></clipPath><clipPath id="clip-path-29"><rect width="343.72" height="124.63" x="-668.83" y="614.39" class="cls-1"/></clipPath><clipPath id="clip-path-30"><rect width="94.42" height="75.33" x="-547.29" y="639.5" class="cls-1"/></clipPath><clipPath id="clip-path-31"><rect width="94.42" height="15.59" x="-547.29" y="639.5" class="cls-1"/></clipPath><clipPath id="clip-path-32"><path d="M-535.48,647.3a3.92,3.92,0,0,1-3.93,3.9,3.92,3.92,0,0,1-3.93-3.9,3.92,3.92,0,0,1,3.93-3.9,3.92,3.92,0,0,1,3.93,3.9" class="cls-2"/></clipPath><clipPath id="clip-path-33"><path d="M-523.68,647.3a3.92,3.92,0,0,1-3.93,3.9,3.92,3.92,0,0,1-3.93-3.9,3.92,3.92,0,0,1,3.93-3.9,3.92,3.92,0,0,1,3.93,3.9" class="cls-2"/></clipPath><clipPath id="clip-path-34"><path d="M-511.88,647.3a3.92,3.92,0,0,1-3.93,3.9,3.92,3.92,0,0,1-3.93-3.9,3.92,3.92,0,0,1,3.93-3.9,3.92,3.92,0,0,1,3.93,3.9" class="cls-2"/></clipPath><clipPath id="clip-path-35"><rect width="9.18" height="59.75" x="-547.29" y="655.09" class="cls-1"/></clipPath><clipPath id="clip-path-36"><path d="M-542,662.88a1.3,1.3,0,0,0,1.31-1.3,1.3,1.3,0,0,0-1.31-1.3h-1.31a1.3,1.3,0,0,0-1.31,1.3,1.3,1.3,0,0,0,1.31,1.3Z" class="cls-2"/></clipPath><clipPath id="clip-path-37"><path d="M-542,665.48h-1.31a1.3,1.3,0,0,0-1.31,1.3,1.3,1.3,0,0,0,1.31,1.3H-542a1.3,1.3,0,0,0,1.31-1.3,1.3,1.3,0,0,0-1.31-1.3" class="cls-2"/></clipPath><clipPath id="clip-path-38"><path d="M-542,670.67h-1.31a1.3,1.3,0,0,0-1.31,1.3,1.3,1.3,0,0,0,1.31,1.3H-542a1.3,1.3,0,0,0,1.31-1.3,1.3,1.3,0,0,0-1.31-1.3" class="cls-2"/></clipPath><clipPath id="clip-path-39"><path d="M-542,675.87h-1.31a1.3,1.3,0,0,0-1.31,1.3,1.3,1.3,0,0,0,1.31,1.3H-542a1.3,1.3,0,0,0,1.31-1.3,1.3,1.3,0,0,0-1.31-1.3" class="cls-2"/></clipPath><clipPath id="clip-path-40"><path d="M-542,681.07h-1.31a1.3,1.3,0,0,0-1.31,1.3,1.3,1.3,0,0,0,1.31,1.3H-542a1.3,1.3,0,0,0,1.31-1.3,1.3,1.3,0,0,0-1.31-1.3" class="cls-2"/></clipPath><clipPath id="clip-path-41"><path d="M-542,686.26h-1.31a1.3,1.3,0,0,0-1.31,1.3,1.3,1.3,0,0,0,1.31,1.3H-542a1.3,1.3,0,0,0,1.31-1.3,1.3,1.3,0,0,0-1.31-1.3" class="cls-2"/></clipPath><clipPath id="clip-path-42"><path d="M-542,691.46h-1.31a1.3,1.3,0,0,0-1.31,1.3,1.3,1.3,0,0,0,1.31,1.3H-542a1.3,1.3,0,0,0,1.31-1.3,1.3,1.3,0,0,0-1.31-1.3" class="cls-2"/></clipPath><clipPath id="clip-path-43"><path d="M-542,696.65h-1.31a1.3,1.3,0,0,0-1.31,1.3,1.3,1.3,0,0,0,1.31,1.3H-542a1.3,1.3,0,0,0,1.31-1.3,1.3,1.3,0,0,0-1.31-1.3" class="cls-2"/></clipPath><clipPath id="clip-path-44"><path d="M-542,701.85h-1.31a1.3,1.3,0,0,0-1.31,1.3,1.3,1.3,0,0,0,1.31,1.3H-542a1.3,1.3,0,0,0,1.31-1.3,1.3,1.3,0,0,0-1.31-1.3" class="cls-2"/></clipPath><clipPath id="clip-path-45"><path d="M-542,707h-1.31a1.3,1.3,0,0,0-1.31,1.3,1.3,1.3,0,0,0,1.31,1.3H-542a1.3,1.3,0,0,0,1.31-1.3A1.3,1.3,0,0,0-542,707" class="cls-2"/></clipPath><clipPath id="clip-path-46"><path d="M-504.57,688.48h-.38c-6.51,0-11.78-5-11.78-11.15s5.28-11.15,11.78-11.15,11.78,5,11.78,11.15a10.81,10.81,0,0,1-3.41,7.84l-8,9.46Z" class="cls-2"/></clipPath><clipPath id="clip-path-47"><path d="M-486.46,699.43h.48c8.36,0,15.14-6.41,15.14-14.32s-6.78-14.32-15.14-14.32-15.14,6.41-15.14,14.32a13.89,13.89,0,0,0,4.38,10.07l10.27,12.15Z" class="cls-2"/></clipPath><clipPath id="clip-path-48"><ellipse cx="-491.34" cy="685.59" class="cls-1" rx="1.95" ry="1.85"/></clipPath><clipPath id="clip-path-49"><ellipse cx="-485.48" cy="685.59" class="cls-1" rx="1.95" ry="1.85"/></clipPath><clipPath id="clip-path-50"><ellipse cx="-479.63" cy="685.59" class="cls-1" rx="1.95" ry="1.85"/></clipPath><clipPath id="clip-path-51"><ellipse cx="-350.02" cy="34.57" class="cls-1" rx="33.84" ry="33.92"/></clipPath><clipPath id="clip-path-52"><path d="M-341.83,27.09a1.27,1.27,0,0,1,1.27-1.28h6.08a1.28,1.28,0,0,1,1.27,1.28v21a1.27,1.27,0,0,1-1.27,1.28h-6.08a1.28,1.28,0,0,1-1.27-1.28Z" class="cls-2"/></clipPath><clipPath id="clip-path-53"><rect width="8.62" height="8.64" x="-363.86" y="40.69" class="cls-1" rx="1.27" ry="1.27"/></clipPath><clipPath id="clip-path-54"><path d="M-352.85,34.78a1.27,1.27,0,0,1,1.27-1.28h6.08a1.27,1.27,0,0,1,1.27,1.28V48.05a1.27,1.27,0,0,1-1.27,1.28h-6.08a1.27,1.27,0,0,1-1.27-1.28Z" class="cls-2"/></clipPath><clipPath id="clip-path-55"><ellipse cx="-349.63" cy="114.15" class="cls-1" rx="33.84" ry="33.92"/></clipPath><clipPath id="clip-path-56"><ellipse cx="-336.21" cy="121.51" class="cls-1" rx="9.26" ry="9.28"/></clipPath><clipPath id="clip-path-57"><polygon points="-337.48 123.68 -340.25 120.76 -341.47 122.02 -337.48 126.19 -329.98 118.49 -331.19 117.23 -337.48 123.68" class="cls-2"/></clipPath><clipPath id="clip-path-59"><path d="M-354.9,110.85a7.36,7.36,0,0,1-2.23-5.3,7.25,7.25,0,0,1,7.19-7.32,7.25,7.25,0,0,1,7.19,7.32,7.36,7.36,0,0,1-2.1,5.17A13.88,13.88,0,0,1-336,123.83h-27.45A13.91,13.91,0,0,1-354.9,110.85Z" class="cls-2"/></clipPath><clipPath id="clip-path-62"><circle cx="-242.36" cy="-49.99" r="34" class="cls-1"/></clipPath><clipPath id="clip-path-63"><path d="M-229.53-59.61h-25a1.28,1.28,0,0,0-1.29,1.28V-34l3.73-4.84h21.29a1.28,1.28,0,0,0,1.28-1.27Z" class="cls-2"/></clipPath><clipPath id="clip-path-64"><rect width="16.04" height="1.28" x="-250.7" y="-46.78" class="cls-1"/></clipPath><clipPath id="clip-path-65"><rect width="16.04" height="1.28" x="-250.7" y="-50.63" class="cls-1"/></clipPath><clipPath id="clip-path-66"><rect width="16.04" height="1.28" x="-250.7" y="-54.48" class="cls-1"/></clipPath><clipPath id="clip-path-67"><circle cx="-230.18" cy="-60.9" r="5.13" class="cls-1"/></clipPath><clipPath id="clip-path-68"><ellipse cx="-243.95" cy="34.14" class="cls-1" rx="33.84" ry="33.92"/></clipPath><clipPath id="clip-path-69"><path d="M-235.79,26.5a1.27,1.27,0,0,1,1.27-1.28h6.08a1.28,1.28,0,0,1,1.27,1.28v21a1.27,1.27,0,0,1-1.27,1.28h-6.08a1.28,1.28,0,0,1-1.27-1.28Z" class="cls-2"/></clipPath><clipPath id="clip-path-70"><rect width="8.62" height="8.64" x="-257.79" y="40.22" class="cls-1" rx="1.27" ry="1.27"/></clipPath><clipPath id="clip-path-71"><path d="M-246.79,34.5a1.27,1.27,0,0,1,1.27-1.28h6.08a1.27,1.27,0,0,1,1.27,1.28V47.77a1.27,1.27,0,0,1-1.27,1.28h-6.08a1.27,1.27,0,0,1-1.27-1.28Z" class="cls-2"/></clipPath><clipPath id="clip-path-72"><path d="M-249,110.32a7.36,7.36,0,0,1-2.23-5.3A7.25,7.25,0,0,1-244,97.7a7.25,7.25,0,0,1,7.19,7.32,7.36,7.36,0,0,1-2.1,5.17,13.88,13.88,0,0,1,8.85,13.11h-27.45A13.91,13.91,0,0,1-249,110.32Z" class="cls-2"/></clipPath><clipPath id="clip-path-73"><ellipse cx="-230.26" cy="120.98" class="cls-1" rx="9.26" ry="9.28"/></clipPath><clipPath id="clip-path-74"><polygon points="-231.53 123.15 -234.3 120.23 -235.52 121.48 -231.53 125.66 -224.03 117.96 -225.25 116.7 -231.53 123.15" class="cls-2"/></clipPath><clipPath id="clip-path-75"><circle cx="36.83" cy="36.7" r="35.5" class="cls-1"/></clipPath><clipPath id="clip-path-76"><path d="M17.33,24.2a1,1,0,0,1,1-1h37a1,1,0,0,1,1,1v22a1,1,0,0,1-1,1h-37a1,1,0,0,1-1-1Z" class="cls-2"/></clipPath><clipPath id="clip-path-77"><path d="M47.33,31.2a1,1,0,0,1,1-1h12a1,1,0,0,1,1,1v22a1,1,0,0,1-1,1h-12a1,1,0,0,1-1-1Z" class="cls-2"/></clipPath><clipPath id="clip-path-78"><rect width="14" height="6" x="47.33" y="48.2" class="cls-1"/></clipPath><clipPath id="clip-path-79"><circle cx="54.33" cy="51.2" r="1" class="cls-1"/></clipPath><clipPath id="clip-path-80"><rect width="10" height="10.4" x="10.33" y="38" class="cls-1" rx="2.4" ry="2.4"/></clipPath><clipPath id="clip-path-81"><path d="M11.87,34a.79.79,0,0,1,.79-.79H18a.8.8,0,0,1,.79.79v4H11.87Z" class="cls-2"/></clipPath><clipPath id="clip-path-82"><path d="M11.87,48.4h6.92v4a.79.79,0,0,1-.79.79H12.67a.8.8,0,0,1-.79-.79Z" class="cls-2"/></clipPath></defs><title>Artboard 37</title><g class="cls-75"><rect width="81" height="81" x="-3.67" y="-3.8" class="cls-76"/></g><circle cx="36.83" cy="36.7" r="35.5" class="cls-77"/><g class="cls-78"><rect width="49" height="34" x="12.33" y="18.2" class="cls-76"/></g><path d="M17.33,24.2a1,1,0,0,1,1-1h37a1,1,0,0,1,1,1v22a1,1,0,0,1-1,1h-37a1,1,0,0,1-1-1Z" class="cls-77"/><path d="M12.33,47.2h49v2a2,2,0,0,1-2,2h-45a2,2,0,0,1-2-2Z" class="cls-79"/><g class="cls-80"><rect width="24" height="34" x="42.33" y="25.2" class="cls-76"/></g><path d="M47.33,31.2a1,1,0,0,1,1-1h12a1,1,0,0,1,1,1v22a1,1,0,0,1-1,1h-12a1,1,0,0,1-1-1Z" class="cls-77"/><line x1="47.62" x2="61.04" y1="48.2" y2="48.2" class="cls-81"/><g class="cls-82"><rect width="24" height="16" x="42.33" y="43.2" class="cls-83"/></g><g class="cls-84"><rect width="12" height="12" x="48.33" y="45.2" class="cls-76"/></g><g class="cls-85"><rect width="20" height="20.4" x="5.33" y="33" class="cls-83"/></g><rect width="10" height="10.4" x="10.33" y="38" class="cls-77" rx="2.4" ry="2.4"/><g class="cls-86"><rect width="16.92" height="14.8" x="6.87" y="28.2" class="cls-76"/></g><path d="M11.87,34a.79.79,0,0,1,.79-.79H18a.8.8,0,0,1,.79.79v4H11.87Z" class="cls-77"/><g class="cls-87"><rect width="16.92" height="14.8" x="6.87" y="43.4" class="cls-76"/></g><path d="M11.87,48.4h6.92v4a.79.79,0,0,1-.79.79H12.67a.8.8,0,0,1-.79-.79Z" class="cls-77"/></svg>