<svg id="Layer_1" data-name="Layer 1" xmlns="http://www.w3.org/2000/svg" viewBox="0 0 46.36 66.9"><defs><style>.cls-1{fill:#326ce5;}.cls-2{fill:#3d9bf9;}</style></defs><title>secure-lock-kubernetes</title><path class="cls-1" d="M23.2,55.8" transform="translate(-0.02)"/><path class="cls-2" d="M11.9,29.3V19.4A11.19,11.19,0,0,1,23.2,8.6h0V0A18.41,18.41,0,0,0,4.8,17.7V31Z" transform="translate(-0.02)"/><path class="cls-2" d="M23.1,35.3" transform="translate(-0.02)"/><path class="cls-1" d="M19.4,48.8a1,1,0,0,0-.9-.7h-.2l-5.5.9a11.55,11.55,0,0,0,4.4,5.6l2.1-5.2h0A.61.61,0,0,0,19.4,48.8Z" transform="translate(-0.02)"/><path class="cls-1" d="M20,40.6a1,1,0,0,0,1.3-.2c.1-.2.2-.3.2-.5h0l.3-5.6a3.59,3.59,0,0,0-1.1.2,10.32,10.32,0,0,0-5.3,2.9L20,40.6Z" transform="translate(-0.02)"/><path class="cls-1" d="M17.6,44.9a1,1,0,0,0,.7-1.2c0-.2-.2-.3-.3-.5h0l-4.2-3.8a11.53,11.53,0,0,0-1.6,7l5.4-1.5Z" transform="translate(-0.02)"/><path class="cls-1" d="M24.9,39.9a1,1,0,0,0,1,.9.76.76,0,0,0,.5-.2h0L31,37.4a11.06,11.06,0,0,0-6.4-3.1l.3,5.6Z" transform="translate(-0.02)"/><polygon class="cls-1" points="21.58 46.5 23.18 47.3 24.68 46.5 25.08 44.9 24.08 43.5 22.28 43.5 21.28 44.8 21.58 46.5"/><path class="cls-1" d="M46.3,49.3,42.3,32a3.69,3.69,0,0,0-.7-1.4l-.1-12.8A18.43,18.43,0,0,0,23.1,0V8.6A11.31,11.31,0,0,1,34.4,19.3v7.6l-9.9-4.7a3.19,3.19,0,0,0-2.7,0L5.7,29.9A3.12,3.12,0,0,0,4.1,32L.1,49.3a3.1,3.1,0,0,0,.4,2.3l.2.2L11.9,65.7a3.3,3.3,0,0,0,2.4,1.2H32.2a3,3,0,0,0,2.4-1.2L45.8,51.8A3.12,3.12,0,0,0,46.3,49.3Zm-4.3.3a1.23,1.23,0,0,1-1.4.8h0l-.3-.1a4.18,4.18,0,0,1-1-.4,10.55,10.55,0,0,0-1.9-.5,1.42,1.42,0,0,0-.6.2l-.5-.1a13.71,13.71,0,0,1-6.2,7.8c.1.1.1.3.2.4a1.27,1.27,0,0,0-.1.6,9.5,9.5,0,0,0,1,1.7,5.55,5.55,0,0,0,.6.8l.1.3A1.1,1.1,0,1,1,30,62.2l-.1-.1.1-.3c-.1-.3-.2-.7-.3-1A13.36,13.36,0,0,0,29,59a.55.55,0,0,0-.5-.3l-.2-.4a14.06,14.06,0,0,1-9.9,0l-.4.4c-.2,0-.3.1-.5.2a6.39,6.39,0,0,0-.8,1.9c-.1.3-.2.7-.3,1l-.1.3h0a1.08,1.08,0,0,1-2-.8v-.1l.1-.3L15,60a9.5,9.5,0,0,0,1-1.7,1.27,1.27,0,0,0-.1-.6l.2-.5a14.34,14.34,0,0,1-6.2-7.7l-.5.1a1.42,1.42,0,0,0-.6-.2,13.32,13.32,0,0,0-1.9.5c-.3.1-.7.3-1,.4l-.3.1h0a1,1,0,0,1-1.3-.7A1,1,0,0,1,5,48.4h.1l.3-.1c.3,0,.7-.1,1-.1a12.5,12.5,0,0,0,1.9-.3c.2-.1.3-.3.5-.5l.4-.1a13.54,13.54,0,0,1,2.2-9.6l-.3-.3a1.42,1.42,0,0,0-.2-.6,9.06,9.06,0,0,0-1.6-1.1c-.3-.2-.6-.3-.9-.5L8.2,35h0a1.25,1.25,0,0,1-.3-1.6A1.39,1.39,0,0,1,9,32.9a1.33,1.33,0,0,1,.8.3l.2.2a5.72,5.72,0,0,1,.7.8,6.39,6.39,0,0,0,1.5,1.3,1.27,1.27,0,0,0,.6.1l.4.3a13.74,13.74,0,0,1,7-4l1.9-.3V31a1,1,0,0,0,.4-.5,12.1,12.1,0,0,0-.1-1.9,3.4,3.4,0,0,1-.1-1v-.3h0a1.06,1.06,0,1,1,2.1-.3v.6c0,.3-.1.7-.1,1a4,4,0,0,0-.3,1.9.66.66,0,0,0,.4.5v.5a13.93,13.93,0,0,1,8.9,4.3l.4-.3a2,2,0,0,0,.7-.1,8.64,8.64,0,0,0,1.4-1.3c.2-.3.5-.5.7-.8l.2-.2a1.06,1.06,0,1,1,1.6,1.4c-.1.1-.2.1-.3.2l-.2.3a4.05,4.05,0,0,1-.9.5,9.06,9.06,0,0,0-1.6,1.1,1.42,1.42,0,0,0-.2.6l-.4.3a13.65,13.65,0,0,1,2.2,9.6l.4.1a1.21,1.21,0,0,0,.5.5,6.28,6.28,0,0,0,1.9.3,3.4,3.4,0,0,1,1,.1l.3.1a1.28,1.28,0,0,1,1,1.4Z" transform="translate(-0.02)"/><path class="cls-1" d="M32.6,39.5h0l-4.2,3.7h0a.93.93,0,0,0-.1,1.3,2.19,2.19,0,0,0,.5.3h0l5.4,1.6a10.32,10.32,0,0,0-1.6-6.9Z" transform="translate(-0.02)"/><path class="cls-1" d="M28.1,48.1h-.2a1,1,0,0,0-.9,1,.37.37,0,0,0,.1.3h0l2.2,5.2a10.48,10.48,0,0,0,4.4-5.7l-5.6-.8Z" transform="translate(-0.02)"/><path class="cls-1" d="M24,50.9a1.05,1.05,0,0,0-.9-.5h0a1,1,0,0,0-.8.5h0l-2.7,4.9a10.22,10.22,0,0,0,6,.3l1.1-.3L24,50.9Z" transform="translate(-0.02)"/></svg>